<svg width="24" height="24" viewBox="0 0 24 24" fill="none" xmlns="http://www.w3.org/2000/svg">
<g clip-path="url(#clip0_307_583)">
<g clip-path="url(#clip1_307_583)">
<path d="M15.8184 12C15.8184 12.7552 15.5944 13.4934 15.1749 14.1213C14.7553 14.7492 14.159 15.2385 13.4613 15.5275C12.7636 15.8165 11.9959 15.8921 11.2553 15.7448C10.5146 15.5975 9.8343 15.2338 9.30031 14.6999C8.76633 14.1659 8.40269 13.4855 8.25536 12.7449C8.10804 12.0042 8.18365 11.2365 8.47264 10.5388C8.76163 9.84116 9.25101 9.24484 9.87891 8.82529C10.5068 8.40575 11.245 8.18181 12.0002 8.18181C13.0125 8.18297 13.983 8.58561 14.6988 9.30141C15.4146 10.0172 15.8172 10.9877 15.8184 12ZM23.932 6.74999V17.25C23.93 19.0215 23.2254 20.7199 21.9727 21.9725C20.7201 23.2252 19.0217 23.9298 17.2502 23.9318H6.75018C4.97866 23.9298 3.28028 23.2252 2.02763 21.9725C0.774985 20.7199 0.0703657 19.0215 0.0683594 17.25V6.74999C0.0703657 4.97848 0.774985 3.2801 2.02763 2.02745C3.28028 0.774802 4.97866 0.0701826 6.75018 0.0681763H17.2502C19.0217 0.0701826 20.7201 0.774802 21.9727 2.02745C23.2254 3.2801 23.93 4.97848 23.932 6.74999ZM17.7274 12C17.7274 10.8672 17.3916 9.75994 16.7622 8.81809C16.1329 7.87625 15.2384 7.14217 14.1919 6.70868C13.1454 6.2752 11.9938 6.16178 10.8828 6.38277C9.77186 6.60376 8.75136 7.14923 7.95038 7.9502C7.14941 8.75117 6.60394 9.77168 6.38295 10.8827C6.16196 11.9936 6.27538 13.1452 6.70887 14.1917C7.14235 15.2382 7.87643 16.1327 8.81827 16.762C9.76012 17.3914 10.8674 17.7273 12.0002 17.7273C13.5186 17.7255 14.9744 17.1216 16.0481 16.0479C17.1218 14.9742 17.7257 13.5184 17.7274 12ZM19.6365 5.79545C19.6365 5.51226 19.5526 5.23544 19.3952 4.99997C19.2379 4.76451 19.0143 4.58099 18.7527 4.47262C18.491 4.36425 18.2031 4.3359 17.9254 4.39114C17.6476 4.44639 17.3925 4.58276 17.1923 4.783C16.992 4.98324 16.8557 5.23837 16.8004 5.51611C16.7452 5.79386 16.7735 6.08175 16.8819 6.34338C16.9903 6.60501 17.1738 6.82863 17.4092 6.98596C17.6447 7.14329 17.9215 7.22727 18.2047 7.22727C18.5845 7.22727 18.9487 7.07642 19.2172 6.8079C19.4857 6.53938 19.6365 6.17519 19.6365 5.79545Z" fill="#008080"/>
</g>
</g>
<defs>
<clipPath id="clip0_307_583">
<rect width="24" height="24" fill="white"/>
</clipPath>
<clipPath id="clip1_307_583">
<rect width="24" height="24" fill="white"/>
</clipPath>
</defs>
</svg>
