<svg width="20" height="20" viewBox="0 0 20 20" fill="none" xmlns="http://www.w3.org/2000/svg">
<path d="M14.167 2.5C14.3792 2.2492 14.6418 2.04505 14.9378 1.90057C15.2339 1.75609 15.5571 1.67445 15.8867 1.66085C16.2163 1.64725 16.5452 1.70198 16.8523 1.82157C17.1594 1.94116 17.4381 2.12298 17.6706 2.35544C17.903 2.58789 18.0842 2.86589 18.2024 3.1717C18.3207 3.47752 18.3735 3.80445 18.3575 4.13165C18.3415 4.45885 18.257 4.77916 18.1094 5.07214C17.9618 5.36512 17.7544 5.62436 17.5003 5.83333L6.25033 17.0833L1.66699 18.3333L2.91699 13.75L14.167 2.5Z" stroke="#7F7F7F" stroke-width="2" stroke-linecap="round" stroke-linejoin="round"/>
</svg>
