<svg width="20" height="20" viewBox="0 0 20 20" fill="none" xmlns="http://www.w3.org/2000/svg">
<g clip-path="url(#clip0_262_433)">
<path d="M8.33333 19.1667C8.33333 19.6275 7.96 20 7.5 20H4.16667C1.86917 20 0 18.1308 0 15.8333V5.83333C0 3.53583 1.86917 1.66667 4.16667 1.66667H4.30917C4.65333 0.696667 5.58 0 6.66667 0H8.33333C9.42 0 10.3467 0.696667 10.6908 1.66667H10.8333C13.1308 1.66667 15 3.53583 15 5.83333V8.33333C15 8.79333 14.6275 9.16667 14.1667 9.16667C13.7058 9.16667 13.3333 8.79333 13.3333 8.33333V5.83333C13.3333 4.455 12.2117 3.33333 10.8333 3.33333H10C9.54 3.33333 9.16667 2.96 9.16667 2.5C9.16667 2.04 8.7925 1.66667 8.33333 1.66667H6.66667C6.2075 1.66667 5.83333 2.04083 5.83333 2.5C5.83333 2.95917 5.46 3.33333 5 3.33333H4.16667C2.78833 3.33333 1.66667 4.455 1.66667 5.83333V15.8333C1.66667 17.2117 2.78833 18.3333 4.16667 18.3333H7.5C7.96 18.3333 8.33333 18.7058 8.33333 19.1667ZM7.3275 5.59417L5.47167 7.45C5.40667 7.51583 5.30167 7.51833 5.23333 7.455L4.3125 6.61083C3.97333 6.3 3.44583 6.32417 3.135 6.6625C2.82417 7.00167 2.84667 7.52917 3.18667 7.84L4.1075 8.68417C4.46083 9.00833 4.90583 9.16917 5.35 9.16917C5.82083 9.16917 6.29083 8.98833 6.65 8.62917L8.50583 6.77333C8.83167 6.4475 8.83167 5.92083 8.50583 5.595C8.18 5.26917 7.65333 5.26917 7.3275 5.595V5.59417ZM7.3275 10.6608L5.47167 12.5167C5.40667 12.5825 5.30167 12.5842 5.23333 12.5217L4.3125 11.6775C3.97333 11.3667 3.44583 11.39 3.135 11.7292C2.82417 12.0683 2.84667 12.5958 3.18667 12.9067L4.1075 13.7508C4.46083 14.075 4.90583 14.2358 5.35 14.2358C5.82083 14.2358 6.29083 14.0542 6.65 13.6958L8.50583 11.84C8.83167 11.5142 8.83167 10.9875 8.50583 10.6617C8.18 10.3358 7.65333 10.335 7.3275 10.6608ZM20 13.75V17.0833C20 18.6917 18.6917 20 17.0833 20H12.9167C11.3083 20 10 18.6917 10 17.0833V13.75C10 12.1417 11.3083 10.8333 12.9167 10.8333H17.0833C18.6917 10.8333 20 12.1417 20 13.75ZM18.3333 13.75C18.3333 13.0608 17.7725 12.5 17.0833 12.5H12.9167C12.2275 12.5 11.6667 13.0608 11.6667 13.75V17.0833C11.6667 17.7725 12.2275 18.3333 12.9167 18.3333H17.0833C17.7725 18.3333 18.3333 17.7725 18.3333 17.0833V13.75ZM15.8333 14.1667H14.1667C13.7058 14.1667 13.3333 14.5392 13.3333 15C13.3333 15.4608 13.7058 15.8333 14.1667 15.8333H15.8333C16.2942 15.8333 16.6667 15.4608 16.6667 15C16.6667 14.5392 16.2942 14.1667 15.8333 14.1667ZM11.6667 8.33333C11.6667 7.87333 11.2942 7.5 10.8333 7.5H9.58333C9.12333 7.5 8.75 7.87333 8.75 8.33333C8.75 8.79333 9.12333 9.16667 9.58333 9.16667H10.8333C11.2942 9.16667 11.6667 8.79333 11.6667 8.33333Z" fill="black"/>
</g>
<defs>
<clipPath id="clip0_262_433">
<rect width="20" height="20" fill="white"/>
</clipPath>
</defs>
</svg>
