<svg width="24" height="24" viewBox="0 0 24 24" fill="none" xmlns="http://www.w3.org/2000/svg">
<g clip-path="url(#clip0_946_109)">
<path d="M22 5.72438V2.00038C22 1.44838 21.553 1.00038 21 1.00038C20.447 1.00038 20 1.44838 20 2.00038V4.36638L14.797 0.85538C13.098 -0.29062 10.902 -0.29062 9.203 0.85538L2.203 5.57938C0.824 6.51038 0 8.05938 0 9.72438V19.0004C0 21.7574 2.243 24.0004 5 24.0004H8C8.553 24.0004 9 23.5524 9 23.0004V15.0004C9 14.4494 9.448 14.0004 10 14.0004H14C14.552 14.0004 15 14.4494 15 15.0004V23.0004C15 23.5524 15.447 24.0004 16 24.0004H19C21.757 24.0004 24 21.7574 24 19.0004V9.72438C24 8.14338 23.256 6.66638 22 5.72438ZM22 19.0004C22 20.6544 20.654 22.0004 19 22.0004H17V15.0004C17 13.3464 15.654 12.0004 14 12.0004H10C8.346 12.0004 7 13.3464 7 15.0004V22.0004H5C3.346 22.0004 2 20.6544 2 19.0004V9.72438C2 8.72538 2.494 7.79538 3.322 7.23738L10.322 2.51338C11.342 1.82538 12.658 1.82538 13.677 2.51338L20.677 7.23738C21.505 7.79538 21.999 8.72538 21.999 9.72438L22 19.0004Z" fill="#AFAFAF"/>
</g>
<defs>
<clipPath id="clip0_946_109">
<rect width="24" height="24" fill="white"/>
</clipPath>
</defs>
</svg>
