<svg width="16" height="20" viewBox="0 0 16 20" fill="none" xmlns="http://www.w3.org/2000/svg">
<path d="M14.6663 8.33333C14.6663 13.3333 7.99967 18.3333 7.99967 18.3333C7.99967 18.3333 1.33301 13.3333 1.33301 8.33333C1.33301 6.56522 2.03539 4.86953 3.28563 3.61929C4.53587 2.36905 6.23156 1.66667 7.99967 1.66667C9.76778 1.66667 11.4635 2.36905 12.7137 3.61929C13.964 4.86953 14.6663 6.56522 14.6663 8.33333Z" stroke="black" stroke-width="2" stroke-linecap="round" stroke-linejoin="round"/>
<path d="M7.99967 10.8333C9.38039 10.8333 10.4997 9.71405 10.4997 8.33333C10.4997 6.95262 9.38039 5.83333 7.99967 5.83333C6.61896 5.83333 5.49967 6.95262 5.49967 8.33333C5.49967 9.71405 6.61896 10.8333 7.99967 10.8333Z" stroke="black" stroke-width="2" stroke-linecap="round" stroke-linejoin="round"/>
</svg>
