<svg width="32" height="32" viewBox="0 0 32 32" fill="none" xmlns="http://www.w3.org/2000/svg">
<circle cx="16" cy="16" r="16" fill="#008080" fill-opacity="0.16"/>
<path d="M23.5807 7.36171C22.6601 6.48633 21.4778 6.00526 20.2523 6.00526C18.8368 6.00526 17.4665 6.65215 16.4935 7.78204C16.3186 7.98546 16.1546 8.20382 16.0007 8.44098C14.8091 6.61841 12.8182 5.68327 10.849 6.09685C9.215 6.43765 7.93034 7.46968 7.03322 9.1621C5.76743 11.5515 5.66384 13.8561 6.72705 16.0123C7.29535 17.1658 8.03268 18.2899 8.98139 19.4487C10.719 21.5716 12.7758 23.5865 15.4546 25.7874C15.6257 25.9287 15.809 26 16.0003 26C16.2947 26 16.4935 25.8289 16.5921 25.745C19.0091 23.7614 20.9078 21.9331 22.5678 19.9881C23.4947 18.9025 24.5466 17.5683 25.3158 15.9019C25.6455 15.1899 26.0213 14.2316 25.9991 13.1369C25.9496 10.7812 25.1363 8.83817 23.5807 7.36171ZM24.0568 15.1335C23.3719 16.6153 22.4055 17.8382 21.5499 18.8399C20.0149 20.6388 18.2596 22.3414 15.9977 24.2184C13.5362 22.1717 11.6308 20.2922 10.0203 18.3236C9.15083 17.2617 8.47935 16.2412 7.96725 15.2025C7.15653 13.5587 7.2467 11.9092 8.25161 10.0139C8.92771 8.73743 9.88732 7.96135 11.1045 7.70732C11.3377 7.65816 11.5738 7.63405 11.8066 7.63405C13.2493 7.63405 14.5273 8.54992 15.2491 10.1401L15.3716 10.4057C15.4974 10.6771 15.7566 10.8314 16.0124 10.8386C16.2804 10.8328 16.5224 10.6569 16.6403 10.3802C16.8936 9.78633 17.17 9.32551 17.5072 8.93313C18.2143 8.11319 19.2146 7.64225 20.2523 7.64225C21.1469 7.64225 22.0063 7.99076 22.6727 8.62415C23.9125 9.80079 24.534 11.2903 24.5739 13.1741C24.5877 13.8851 24.3206 14.5628 24.0568 15.1335Z" fill="#008080"/>
</svg>
